<svg width="182" height="26" viewBox="0 0 182 26" fill="none" xmlns="http://www.w3.org/2000/svg">
<path d="M6.27017 11.4447C6.27017 12.411 6.0224 13.1357 5.52686 13.6189C5.03132 14.0958 4.34065 14.3343 3.45488 14.3343C2.68679 14.3343 2.12311 14.3034 1.76384 14.2414C1.63376 14.2228 1.56872 14.1454 1.56872 14.0091V7.62594C1.56872 7.48967 1.63376 7.41224 1.76384 7.39366C2.12311 7.33171 2.68679 7.30074 3.45488 7.30074C4.34685 7.30074 5.03751 7.53922 5.52686 8.01618C6.0224 8.49314 6.27017 9.21787 6.27017 10.1904V11.4447ZM5.42465 11.4447V10.1904C5.42465 9.40369 5.24811 8.84621 4.89504 8.51792C4.54816 8.18962 4.06811 8.02547 3.45488 8.02547C3.07703 8.02547 2.73324 8.03476 2.42353 8.05335V13.591C2.62175 13.6034 2.96553 13.6096 3.45488 13.6096C4.76806 13.6096 5.42465 12.888 5.42465 11.4447ZM11.3677 11.7699C11.3677 11.9062 11.3088 11.9743 11.1911 11.9743H8.0785V12.1044C8.0785 12.6433 8.18381 13.0304 8.39441 13.2658C8.60502 13.5012 8.93022 13.6189 9.37001 13.6189C10.0266 13.6189 10.5779 13.5848 11.0239 13.5167H11.0703C11.1694 13.5167 11.219 13.56 11.219 13.6468V13.9627C11.219 14.0804 11.1571 14.1516 11.0332 14.1764C10.4881 14.2817 9.93369 14.3343 9.37001 14.3343C9.08507 14.3343 8.82182 14.2972 8.58024 14.2228C8.34486 14.1485 8.12496 14.0308 7.92055 13.8698C7.71614 13.7087 7.55509 13.4795 7.4374 13.1822C7.31971 12.8787 7.26086 12.5194 7.26086 12.1044V11.2682C7.26086 10.593 7.4405 10.0634 7.79976 9.67934C8.15903 9.2891 8.66696 9.09398 9.32355 9.09398C9.98634 9.09398 10.4912 9.2891 10.838 9.67934C11.1911 10.0634 11.3677 10.593 11.3677 11.2682V11.7699ZM10.5407 11.3518V11.2682C10.5407 10.754 10.4416 10.3824 10.2434 10.1532C10.0452 9.92401 9.73857 9.80942 9.32355 9.80942C8.49352 9.80942 8.0785 10.2957 8.0785 11.2682V11.3518H10.5407ZM15.7155 12.9871C15.7155 13.4455 15.5607 13.7861 15.251 14.0091C14.9474 14.2259 14.5231 14.3343 13.978 14.3343C13.3772 14.3343 12.8878 14.2879 12.51 14.195C12.3799 14.164 12.3149 14.102 12.3149 14.0091V13.6839C12.3149 13.591 12.3706 13.5446 12.4821 13.5446H12.5193C13.0644 13.6127 13.5506 13.6468 13.978 13.6468C14.2939 13.6468 14.5262 13.5972 14.6749 13.4981C14.8235 13.399 14.8979 13.2287 14.8979 12.9871C14.8979 12.8508 14.8483 12.73 14.7492 12.6247C14.6501 12.5132 14.4674 12.3769 14.201 12.2159L13.2626 11.6584C12.6308 11.2744 12.3149 10.8315 12.3149 10.3297C12.3149 9.5059 12.8755 9.09398 13.9966 9.09398C14.4922 9.09398 14.9753 9.13424 15.4461 9.21477C15.5638 9.23335 15.6226 9.29529 15.6226 9.4006V9.70721C15.6226 9.81252 15.57 9.86517 15.4647 9.86517H15.4368C14.8607 9.81561 14.3807 9.79084 13.9966 9.79084C13.6993 9.79084 13.4794 9.828 13.3369 9.90233C13.2007 9.97047 13.1325 10.1129 13.1325 10.3297C13.1325 10.4598 13.1821 10.5775 13.2812 10.6828C13.3803 10.7819 13.5444 10.8996 13.7736 11.0359L14.6935 11.5841C15.0713 11.8071 15.3346 12.027 15.4832 12.2438C15.6381 12.4606 15.7155 12.7083 15.7155 12.9871ZM20.5732 13.9069C20.5732 13.9689 20.5609 14.0153 20.5361 14.0463C20.5113 14.0773 20.4587 14.102 20.3781 14.1206C19.7959 14.2631 19.226 14.3343 18.6685 14.3343C17.9933 14.3343 17.4854 14.133 17.1447 13.7304C16.8102 13.3216 16.643 12.7579 16.643 12.0394V11.389C16.643 10.6704 16.8102 10.1098 17.1447 9.70721C17.4854 9.29839 17.9933 9.09398 18.6685 9.09398C19.226 9.09398 19.7959 9.16522 20.3781 9.30768C20.4587 9.32627 20.5113 9.35104 20.5361 9.38201C20.5609 9.40679 20.5732 9.45325 20.5732 9.52139V13.9069ZM19.7556 13.5538V9.87446C19.4211 9.81252 19.0588 9.78154 18.6685 9.78154C18.2287 9.78154 17.9159 9.91782 17.7301 10.1904C17.5505 10.4629 17.4606 10.8624 17.4606 11.389V12.0394C17.4606 12.5597 17.5505 12.9592 17.7301 13.2379C17.9159 13.5105 18.2287 13.6468 18.6685 13.6468C19.0464 13.6468 19.4087 13.6158 19.7556 13.5538ZM24.1413 9.66076C24.1413 9.7165 24.1289 9.75677 24.1041 9.78154C24.0793 9.80013 24.0267 9.80942 23.9462 9.80942C23.3825 9.80942 22.952 9.84039 22.6547 9.90233V14.0835C22.6547 14.133 22.6392 14.1764 22.6082 14.2135C22.5772 14.2507 22.537 14.2693 22.4874 14.2693H22.0043C21.9609 14.2693 21.9206 14.2507 21.8835 14.2135C21.8525 14.1764 21.837 14.133 21.837 14.0835V9.56784C21.837 9.47493 21.8928 9.40369 22.0043 9.35414C22.4007 9.1807 23.048 9.09398 23.9462 9.09398C24.0763 9.09398 24.1413 9.14044 24.1413 9.23335V9.66076ZM27.4259 9.66076C27.4259 9.7165 27.4136 9.75677 27.3888 9.78154C27.364 9.80013 27.3113 9.80942 27.2308 9.80942C26.6671 9.80942 26.2366 9.84039 25.9393 9.90233V14.0835C25.9393 14.133 25.9238 14.1764 25.8929 14.2135C25.8619 14.2507 25.8216 14.2693 25.7721 14.2693H25.2889C25.2456 14.2693 25.2053 14.2507 25.1681 14.2135C25.1372 14.1764 25.1217 14.133 25.1217 14.0835V9.56784C25.1217 9.47493 25.1774 9.40369 25.2889 9.35414C25.6854 9.1807 26.3327 9.09398 27.2308 9.09398C27.3609 9.09398 27.4259 9.14044 27.4259 9.23335V9.66076ZM32.1378 12.0672C32.1378 12.7672 31.9582 13.3216 31.5989 13.7304C31.2459 14.133 30.7348 14.3343 30.0659 14.3343C29.3969 14.3343 28.8859 14.133 28.5328 13.7304C28.1797 13.3216 28.0032 12.7672 28.0032 12.0672V11.3611C28.0032 10.6611 28.1797 10.1098 28.5328 9.70721C28.8859 9.29839 29.3969 9.09398 30.0659 9.09398C30.7348 9.09398 31.2459 9.29839 31.5989 9.70721C31.9582 10.1098 32.1378 10.6611 32.1378 11.3611V12.0672ZM31.3202 12.0672V11.3611C31.3202 10.3266 30.9021 9.80942 30.0659 9.80942C29.2358 9.80942 28.8208 10.3266 28.8208 11.3611V12.0672C28.8208 13.1017 29.2358 13.6189 30.0659 13.6189C30.4871 13.6189 30.7999 13.4857 31.0043 13.2194C31.2149 12.9468 31.3202 12.5628 31.3202 12.0672ZM34.1441 14.0835C34.1441 14.133 34.1286 14.1764 34.0976 14.2135C34.0666 14.2507 34.0264 14.2693 33.9768 14.2693H33.4937C33.4503 14.2693 33.41 14.2507 33.3729 14.2135C33.3419 14.1764 33.3264 14.133 33.3264 14.0835V7.4587C33.3264 7.34101 33.3822 7.28216 33.4937 7.28216H33.9768C34.0264 7.28216 34.0666 7.30074 34.0976 7.33791C34.1286 7.36888 34.1441 7.40914 34.1441 7.4587V14.0835ZM36.4125 14.0835C36.4125 14.133 36.397 14.1764 36.366 14.2135C36.335 14.2507 36.2948 14.2693 36.2452 14.2693H35.7621C35.7187 14.2693 35.6784 14.2507 35.6413 14.2135C35.6103 14.1764 35.5948 14.133 35.5948 14.0835V7.4587C35.5948 7.34101 35.6506 7.28216 35.7621 7.28216H36.2452C36.2948 7.28216 36.335 7.30074 36.366 7.33791C36.397 7.36888 36.4125 7.40914 36.4125 7.4587V14.0835ZM41.7377 12.0672C41.7377 12.7672 41.5581 13.3216 41.1988 13.7304C40.8458 14.133 40.3347 14.3343 39.6658 14.3343C38.9968 14.3343 38.4857 14.133 38.1327 13.7304C37.7796 13.3216 37.6031 12.7672 37.6031 12.0672V11.3611C37.6031 10.6611 37.7796 10.1098 38.1327 9.70721C38.4857 9.29839 38.9968 9.09398 39.6658 9.09398C40.3347 9.09398 40.8458 9.29839 41.1988 9.70721C41.5581 10.1098 41.7377 10.6611 41.7377 11.3611V12.0672ZM40.9201 12.0672V11.3611C40.9201 10.3266 40.502 9.80942 39.6658 9.80942C38.8357 9.80942 38.4207 10.3266 38.4207 11.3611V12.0672C38.4207 13.1017 38.8357 13.6189 39.6658 13.6189C40.087 13.6189 40.3998 13.4857 40.6042 13.2194C40.8148 12.9468 40.9201 12.5628 40.9201 12.0672ZM51.345 12.2531C51.345 13.0088 51.1684 13.5446 50.8154 13.8605C50.4685 14.1764 50.0194 14.3343 49.4681 14.3343C49.0655 14.3343 48.6567 14.26 48.2416 14.1113C47.8266 14.26 47.4147 14.3343 47.0059 14.3343C46.4546 14.3343 46.0024 14.1764 45.6493 13.8605C45.3025 13.5446 45.129 13.0088 45.129 12.2531V9.34485C45.129 9.29529 45.1476 9.25193 45.1848 9.21477C45.2219 9.1776 45.2653 9.15902 45.3148 9.15902H45.7515C45.8011 9.15902 45.8445 9.1776 45.8816 9.21477C45.9188 9.25193 45.9374 9.29529 45.9374 9.34485V12.2531C45.9374 12.7486 46.0272 13.1048 46.2068 13.3216C46.3926 13.5322 46.6838 13.6375 47.0802 13.6375C47.2413 13.6375 47.489 13.5972 47.8235 13.5167V9.34485C47.8235 9.29529 47.8421 9.25193 47.8793 9.21477C47.9164 9.1776 47.9598 9.15902 48.0094 9.15902H48.4646C48.5142 9.15902 48.5575 9.1776 48.5947 9.21477C48.6319 9.25193 48.6505 9.29529 48.6505 9.34485V13.5167C48.9849 13.5972 49.2327 13.6375 49.3938 13.6375C49.784 13.6375 50.072 13.5322 50.2579 13.3216C50.4437 13.1048 50.5366 12.7486 50.5366 12.2531V9.34485C50.5366 9.29529 50.5552 9.25193 50.5924 9.21477C50.6295 9.1776 50.6729 9.15902 50.7224 9.15902H51.1591C51.2087 9.15902 51.252 9.1776 51.2892 9.21477C51.3264 9.25193 51.345 9.29529 51.345 9.34485V12.2531ZM56.5452 11.7699C56.5452 11.9062 56.4864 11.9743 56.3687 11.9743H53.2561V12.1044C53.2561 12.6433 53.3614 13.0304 53.572 13.2658C53.7826 13.5012 54.1078 13.6189 54.5476 13.6189C55.2042 13.6189 55.7555 13.5848 56.2015 13.5167H56.2479C56.347 13.5167 56.3966 13.56 56.3966 13.6468V13.9627C56.3966 14.0804 56.3346 14.1516 56.2107 14.1764C55.6657 14.2817 55.1113 14.3343 54.5476 14.3343C54.2627 14.3343 53.9994 14.2972 53.7578 14.2228C53.5224 14.1485 53.3025 14.0308 53.0981 13.8698C52.8937 13.7087 52.7327 13.4795 52.615 13.1822C52.4973 12.8787 52.4384 12.5194 52.4384 12.1044V11.2682C52.4384 10.593 52.6181 10.0634 52.9773 9.67934C53.3366 9.2891 53.8445 9.09398 54.5011 9.09398C55.1639 9.09398 55.6688 9.2891 56.0156 9.67934C56.3687 10.0634 56.5452 10.593 56.5452 11.2682V11.7699ZM55.7183 11.3518V11.2682C55.7183 10.754 55.6192 10.3824 55.421 10.1532C55.2228 9.92401 54.9161 9.80942 54.5011 9.80942C53.6711 9.80942 53.2561 10.2957 53.2561 11.2682V11.3518H55.7183ZM61.59 12.0394C61.59 12.7579 61.4196 13.3216 61.0789 13.7304C60.7444 14.133 60.2396 14.3343 59.5644 14.3343C58.9698 14.3343 58.3999 14.2817 57.8548 14.1764C57.7743 14.164 57.7216 14.1423 57.6969 14.1113C57.6721 14.0804 57.6597 14.0308 57.6597 13.9627V7.4587C57.6597 7.34101 57.7154 7.28216 57.8269 7.28216H58.3008C58.3504 7.28216 58.3906 7.30074 58.4216 7.33791C58.4588 7.36888 58.4773 7.40914 58.4773 7.4587V9.1869C58.8118 9.12495 59.1742 9.09398 59.5644 9.09398C60.2334 9.09398 60.7382 9.2891 61.0789 9.67934C61.4196 10.0696 61.59 10.6333 61.59 11.3704V12.0394ZM60.7723 12.0394V11.3704C60.7723 10.8501 60.6794 10.4598 60.4936 10.1997C60.3139 9.9395 60.0042 9.80942 59.5644 9.80942C59.0751 9.80942 58.7127 9.8311 58.4773 9.87446V13.5631C58.8985 13.6003 59.2609 13.6189 59.5644 13.6189C60.0042 13.6189 60.3139 13.4888 60.4936 13.2287C60.6794 12.9685 60.7723 12.5721 60.7723 12.0394ZM68.9124 12.0579C68.9124 12.7951 68.742 13.3587 68.4013 13.749C68.0607 14.1392 67.5558 14.3343 66.8868 14.3343C66.54 14.3343 66.1776 14.3003 65.7998 14.2321V15.9139C65.7998 15.9634 65.7812 16.0037 65.744 16.0347C65.713 16.0718 65.6728 16.0904 65.6232 16.0904H65.1494C65.0998 16.0904 65.0595 16.0718 65.0286 16.0347C64.9976 16.0037 64.9821 15.9634 64.9821 15.9139V9.52139C64.9821 9.45944 64.9945 9.41299 65.0193 9.38201C65.0441 9.35104 65.0967 9.32627 65.1772 9.30768C65.7595 9.16522 66.3294 9.09398 66.8868 9.09398C67.562 9.09398 68.0669 9.29839 68.4013 9.70721C68.742 10.1098 68.9124 10.6704 68.9124 11.389V12.0579ZM68.0947 12.0579V11.389C68.0947 10.8686 68.0018 10.4722 67.816 10.1997C67.6364 9.92092 67.3266 9.78154 66.8868 9.78154C66.509 9.78154 66.1466 9.81252 65.7998 9.87446V13.5538C66.1404 13.6158 66.5028 13.6468 66.8868 13.6468C67.3204 13.6468 67.6302 13.5136 67.816 13.2472C68.0018 12.9809 68.0947 12.5844 68.0947 12.0579ZM73.9763 12.0672C73.9763 12.7672 73.7967 13.3216 73.4374 13.7304C73.0843 14.133 72.5733 14.3343 71.9043 14.3343C71.2354 14.3343 70.7243 14.133 70.3713 13.7304C70.0182 13.3216 69.8417 12.7672 69.8417 12.0672V11.3611C69.8417 10.6611 70.0182 10.1098 70.3713 9.70721C70.7243 9.29839 71.2354 9.09398 71.9043 9.09398C72.5733 9.09398 73.0843 9.29839 73.4374 9.70721C73.7967 10.1098 73.9763 10.6611 73.9763 11.3611V12.0672ZM73.1587 12.0672V11.3611C73.1587 10.3266 72.7406 9.80942 71.9043 9.80942C71.0743 9.80942 70.6593 10.3266 70.6593 11.3611V12.0672C70.6593 13.1017 71.0743 13.6189 71.9043 13.6189C72.3256 13.6189 72.6384 13.4857 72.8428 13.2194C73.0534 12.9468 73.1587 12.5628 73.1587 12.0672ZM77.3763 9.66076C77.3763 9.7165 77.3639 9.75677 77.3391 9.78154C77.3143 9.80013 77.2617 9.80942 77.1811 9.80942C76.6175 9.80942 76.187 9.84039 75.8896 9.90233V14.0835C75.8896 14.133 75.8741 14.1764 75.8432 14.2135C75.8122 14.2507 75.7719 14.2693 75.7224 14.2693H75.2392C75.1959 14.2693 75.1556 14.2507 75.1184 14.2135C75.0875 14.1764 75.072 14.133 75.072 14.0835V9.56784C75.072 9.47493 75.1277 9.40369 75.2392 9.35414C75.6357 9.1807 76.283 9.09398 77.1811 9.09398C77.3112 9.09398 77.3763 9.14044 77.3763 9.23335V9.66076Z" fill="#929292"/>
<path d="M90.0413 25.6395L85.0859 21.1899V9.47815L90.0413 10.5276V25.6395Z" fill="#2C45C9"/>
<path d="M94.3776 19.133C99.5091 19.133 103.669 14.9043 103.669 9.68801C103.669 4.4717 99.5091 0.243042 94.3776 0.243042C89.2461 0.243042 85.0862 4.4717 85.0862 9.68801C85.0862 14.9043 89.2461 19.133 94.3776 19.133Z" fill="#2C45C9"/>
<path d="M99.9491 9.89119C100.06 6.76328 97.6551 4.1364 94.578 4.02389C91.501 3.91138 88.9168 6.35585 88.8061 9.48376C88.6954 12.6117 91.1002 15.2385 94.1772 15.3511C97.2543 15.4636 99.8384 13.0191 99.9491 9.89119Z" fill="#4F81F7"/>
<path d="M94.3775 12.4166C95.86 12.4166 97.0617 11.195 97.0617 9.68802C97.0617 8.18108 95.86 6.95947 94.3775 6.95947C92.8951 6.95947 91.6934 8.18108 91.6934 9.68802C91.6934 11.195 92.8951 12.4166 94.3775 12.4166Z" fill="#01E792"/>
<path d="M118.707 9.12405C118.707 9.65263 118.612 10.111 118.422 10.4992C118.232 10.8874 117.968 11.1888 117.629 11.4035C117.291 11.6183 116.915 11.7752 116.502 11.8743C116.097 11.9734 115.643 12.023 115.139 12.023C115.04 12.023 114.924 12.023 114.792 12.023C114.66 12.0147 114.516 12.0065 114.359 11.9982C114.202 11.9817 114.094 11.9734 114.037 11.9734V15.2068C114.037 15.2729 114.012 15.3307 113.962 15.3803C113.921 15.4298 113.867 15.4546 113.801 15.4546H112.562C112.496 15.4546 112.439 15.4298 112.389 15.3803C112.339 15.3307 112.315 15.2729 112.315 15.2068V6.68351C112.315 6.47704 112.447 6.35315 112.711 6.31186C113.405 6.20449 114.214 6.15081 115.139 6.15081C115.643 6.15081 116.097 6.20036 116.502 6.29947C116.915 6.39032 117.291 6.54311 117.629 6.75785C117.968 6.96432 118.232 7.26165 118.422 7.64982C118.612 8.02973 118.707 8.48398 118.707 9.01256V9.12405ZM116.997 9.12405V9.01256C116.997 8.5005 116.845 8.13297 116.539 7.90998C116.242 7.68698 115.775 7.57549 115.139 7.57549C114.701 7.57549 114.334 7.59201 114.037 7.62504V10.5735C114.433 10.5983 114.801 10.6107 115.139 10.6107C115.792 10.6107 116.262 10.4909 116.552 10.2514C116.849 10.0036 116.997 9.62785 116.997 9.12405ZM125.524 12.2212C125.524 12.4277 125.441 12.5309 125.276 12.5309H121.237V12.5681C121.237 13.0058 121.349 13.3774 121.572 13.683C121.803 13.9886 122.187 14.1414 122.724 14.1414C123.376 14.1414 124.136 14.1001 125.003 14.0175H125.041C125.189 14.0175 125.264 14.0795 125.264 14.2033V15.021C125.264 15.2109 125.177 15.3183 125.003 15.3431C124.244 15.4835 123.442 15.5537 122.6 15.5537C122.261 15.5537 121.927 15.5041 121.597 15.405C121.274 15.3059 120.956 15.1449 120.643 14.9219C120.329 14.6989 120.077 14.3768 119.887 13.9556C119.697 13.5261 119.602 13.0223 119.602 12.4442V11.5274C119.602 10.5529 119.862 9.78477 120.382 9.22316C120.903 8.66155 121.634 8.38074 122.575 8.38074C123.509 8.38074 124.231 8.66981 124.743 9.24794C125.264 9.81781 125.524 10.5776 125.524 11.5274V12.2212ZM123.876 11.3664V11.3168C123.876 10.8378 123.756 10.4661 123.517 10.2019C123.277 9.92931 122.963 9.79303 122.575 9.79303C122.179 9.79303 121.857 9.92931 121.609 10.2019C121.369 10.4661 121.25 10.8378 121.25 11.3168V11.3664H123.876ZM130.135 9.53288C130.135 9.68154 130.015 9.75587 129.776 9.75587C129.247 9.75587 128.842 9.78478 128.562 9.84259V15.1944C128.562 15.2605 128.537 15.3224 128.487 15.3803C128.446 15.4298 128.392 15.4546 128.326 15.4546H127.174C127.108 15.4546 127.05 15.4298 127.001 15.3803C126.951 15.3224 126.926 15.2605 126.926 15.1944V9.11167C126.926 8.93823 127.038 8.81434 127.261 8.74001C127.988 8.5005 128.826 8.38074 129.776 8.38074C130.015 8.38074 130.135 8.45094 130.135 8.59135V9.53288ZM134.826 9.45854C134.826 9.52462 134.801 9.58243 134.751 9.63198C134.702 9.67328 134.644 9.69393 134.578 9.69393H132.831V15.1944C132.831 15.2605 132.806 15.3224 132.757 15.3803C132.707 15.4298 132.649 15.4546 132.583 15.4546H131.444C131.378 15.4546 131.316 15.4298 131.258 15.3803C131.208 15.3224 131.183 15.2605 131.183 15.1944V7.86042C131.183 7.11711 131.369 6.60092 131.741 6.31186C132.121 6.02279 132.633 5.87826 133.277 5.87826C133.748 5.87826 134.19 5.9113 134.603 5.97737C134.751 5.99389 134.826 6.05996 134.826 6.17559V6.90651C134.826 7.04691 134.764 7.11711 134.64 7.11711H133.562C133.273 7.11711 133.079 7.16667 132.98 7.26578C132.881 7.36488 132.831 7.5631 132.831 7.86042V8.46746H134.578C134.644 8.46746 134.702 8.49224 134.751 8.54179C134.801 8.59135 134.826 8.64916 134.826 8.71523V9.45854ZM141.469 12.469C141.469 13.3857 141.209 14.129 140.689 14.6989C140.177 15.2688 139.45 15.5537 138.508 15.5537C137.567 15.5537 136.836 15.2688 136.315 14.6989C135.803 14.129 135.547 13.3857 135.547 12.469V11.4655C135.547 10.5487 135.803 9.80542 136.315 9.23555C136.836 8.66568 137.567 8.38074 138.508 8.38074C139.45 8.38074 140.177 8.66568 140.689 9.23555C141.209 9.80542 141.469 10.5487 141.469 11.4655V12.469ZM139.834 12.469V11.4655C139.834 10.9452 139.718 10.5363 139.487 10.239C139.264 9.9417 138.938 9.79303 138.508 9.79303C138.079 9.79303 137.748 9.9417 137.517 10.239C137.294 10.5363 137.183 10.9452 137.183 11.4655V12.469C137.183 12.9893 137.294 13.3981 137.517 13.6954C137.748 13.9927 138.079 14.1414 138.508 14.1414C138.938 14.1414 139.264 13.9927 139.487 13.6954C139.718 13.3981 139.834 12.9893 139.834 12.469ZM146.08 9.53288C146.08 9.68154 145.961 9.75587 145.721 9.75587C145.192 9.75587 144.788 9.78478 144.507 9.84259V15.1944C144.507 15.2605 144.482 15.3224 144.433 15.3803C144.391 15.4298 144.338 15.4546 144.272 15.4546H143.119C143.053 15.4546 142.996 15.4298 142.946 15.3803C142.896 15.3224 142.872 15.2605 142.872 15.1944V9.11167C142.872 8.93823 142.983 8.81434 143.206 8.74001C143.933 8.5005 144.771 8.38074 145.721 8.38074C145.961 8.38074 146.08 8.45094 146.08 8.59135V9.53288ZM156.073 15.1944C156.073 15.2605 156.049 15.3224 155.999 15.3803C155.958 15.4298 155.904 15.4546 155.838 15.4546H154.673C154.607 15.4546 154.55 15.4298 154.5 15.3803C154.459 15.3224 154.438 15.2605 154.438 15.1944V10.747C154.438 10.3505 154.368 10.0862 154.227 9.95408C154.095 9.81368 153.876 9.74348 153.571 9.74348H153.274C152.943 9.74348 152.724 9.82607 152.617 9.99125C152.51 10.1482 152.456 10.4001 152.456 10.747V15.1944C152.456 15.2605 152.431 15.3224 152.382 15.3803C152.34 15.4298 152.287 15.4546 152.22 15.4546H151.044C150.978 15.4546 150.92 15.4298 150.87 15.3803C150.829 15.3224 150.808 15.2605 150.808 15.1944V10.747C150.808 10.4001 150.755 10.1482 150.647 9.99125C150.54 9.82607 150.321 9.74348 149.991 9.74348H149.693C149.388 9.74348 149.165 9.81368 149.024 9.95408C148.892 10.0862 148.826 10.3505 148.826 10.747V15.1944C148.826 15.2605 148.801 15.3224 148.752 15.3803C148.71 15.4298 148.657 15.4546 148.591 15.4546H147.426C147.36 15.4546 147.302 15.4298 147.253 15.3803C147.211 15.3224 147.191 15.2605 147.191 15.1944V10.747C147.191 9.97886 147.41 9.39247 147.847 8.98778C148.285 8.58309 148.9 8.38074 149.693 8.38074H149.991C150.701 8.38074 151.246 8.54592 151.626 8.87628C152.006 8.54592 152.555 8.38074 153.274 8.38074H153.571C154.364 8.38074 154.979 8.58309 155.417 8.98778C155.854 9.39247 156.073 9.97886 156.073 10.747V15.1944ZM163.019 15.1201C163.019 15.2027 163.003 15.2646 162.97 15.3059C162.937 15.339 162.871 15.3637 162.772 15.3803C162.276 15.4959 161.574 15.5537 160.665 15.5537C160.228 15.5537 159.848 15.5207 159.526 15.4546C159.212 15.3803 158.915 15.2564 158.634 15.0829C158.361 14.9012 158.155 14.6411 158.014 14.3025C157.874 13.9556 157.804 13.5261 157.804 13.0141V6.49769C157.804 6.43161 157.829 6.3738 157.878 6.32425C157.928 6.27469 157.985 6.24992 158.052 6.24992H159.278C159.344 6.24992 159.402 6.27469 159.451 6.32425C159.501 6.3738 159.526 6.43161 159.526 6.49769V13.0141C159.526 13.4187 159.596 13.6995 159.736 13.8565C159.877 14.0051 160.129 14.0795 160.492 14.0795H162.772C162.838 14.0795 162.895 14.1042 162.945 14.1538C162.995 14.2033 163.019 14.2612 163.019 14.3272V15.1201ZM169.605 14.8971C169.605 14.9962 169.585 15.0705 169.543 15.1201C169.502 15.1614 169.411 15.1986 169.271 15.2316C168.437 15.4463 167.607 15.5537 166.781 15.5537C165.806 15.5537 165.067 15.2812 164.563 14.7361C164.068 14.191 163.82 13.427 163.82 12.4442V11.4903C163.82 10.5074 164.068 9.74348 164.563 9.19839C165.067 8.65329 165.806 8.38074 166.781 8.38074C167.607 8.38074 168.437 8.48811 169.271 8.70284C169.411 8.73588 169.502 8.77718 169.543 8.82673C169.585 8.86802 169.605 8.93823 169.605 9.03733V14.8971ZM167.97 14.129V9.80542C167.698 9.74761 167.301 9.7187 166.781 9.7187C166.285 9.7187 165.938 9.87562 165.74 10.1895C165.55 10.4951 165.455 10.9286 165.455 11.4903V12.4442C165.455 13.0058 165.55 13.4435 165.74 13.7574C165.938 14.0629 166.285 14.2157 166.781 14.2157C167.301 14.2157 167.698 14.1868 167.97 14.129ZM177.003 12.4442C177.003 13.427 176.751 14.191 176.247 14.7361C175.752 15.2812 175.017 15.5537 174.042 15.5537C173.216 15.5537 172.386 15.4463 171.552 15.2316C171.412 15.1986 171.321 15.1614 171.28 15.1201C171.238 15.0705 171.218 14.9962 171.218 14.8971V6.27469C171.218 6.20862 171.242 6.15081 171.292 6.10125C171.342 6.0517 171.399 6.02692 171.465 6.02692H172.605C172.671 6.02692 172.729 6.0517 172.779 6.10125C172.828 6.15081 172.853 6.20862 172.853 6.27469V8.46746C173.282 8.40965 173.679 8.38074 174.042 8.38074C175.017 8.38074 175.752 8.65329 176.247 9.19839C176.751 9.74348 177.003 10.5074 177.003 11.4903V12.4442ZM175.368 12.4442V11.4903C175.368 10.9286 175.269 10.4951 175.071 10.1895C174.881 9.87562 174.538 9.7187 174.042 9.7187C173.654 9.7187 173.258 9.74761 172.853 9.80542V14.129C173.126 14.1868 173.522 14.2157 174.042 14.2157C174.538 14.2157 174.881 14.0629 175.071 13.7574C175.269 13.4435 175.368 13.0058 175.368 12.4442Z" fill="#2C45C9"/>
</svg>
