<svg width="24" height="24" viewBox="0 0 24 24" fill="none" xmlns="http://www.w3.org/2000/svg">
<path fill-rule="evenodd" clip-rule="evenodd" d="M11.5758 1.44702C7.1805 1.44702 3.61743 5.01009 3.61743 9.40535C3.61743 16.2133 10.8523 21.3573 11.1634 21.5744L11.5758 21.8638L11.9882 21.5744C12.2992 21.3573 19.5341 16.2133 19.5341 9.40535C19.5341 5.01009 15.971 1.44702 11.5758 1.44702ZM11.576 20.0767C10.0784 18.9047 5.06464 14.5782 5.06464 9.4053C5.06464 5.80918 7.97987 2.89394 11.576 2.89394C15.1721 2.89394 18.0874 5.80918 18.0874 9.4053C18.0874 14.5782 13.0736 18.9047 11.576 20.0767ZM11.576 6.51136C9.97772 6.51136 8.68206 7.80702 8.68206 9.4053C8.68206 11.0036 9.97772 12.2992 11.576 12.2992C13.1743 12.2992 14.4699 11.0036 14.4699 9.4053C14.4699 8.63778 14.165 7.9017 13.6223 7.35898C13.0796 6.81626 12.3435 6.51136 11.576 6.51136ZM11.5762 10.8522C10.777 10.8522 10.1292 10.2043 10.1292 9.40519C10.1292 8.60605 10.777 7.95822 11.5762 7.95822C12.3753 7.95822 13.0231 8.60605 13.0231 9.40519C13.0231 10.2043 12.3753 10.8522 11.5762 10.8522Z" fill="#F19800"/>
</svg>
